<?xml version="1.0" encoding="utf-8"?>
<!-- Generator: Adobe Illustrator 19.0.0, SVG Export Plug-In . SVG Version: 6.00 Build 0)  -->
<svg version="1.1" id="Capa_1" xmlns="http://www.w3.org/2000/svg" xmlns:xlink="http://www.w3.org/1999/xlink" x="0px" y="0px"
	 viewBox="0 0 52 44" style="enable-background:new 0 0 52 44;" xml:space="preserve">
<style type="text/css">
	.st0{clip-path:url(#SVGID_2_);fill:none;stroke:#37464C;stroke-width:2;stroke-linecap:round;stroke-linejoin:round;}
	.st1{clip-path:url(#SVGID_2_);fill:none;stroke:#37464C;stroke-width:2;stroke-linejoin:round;}
</style>
<g>
	<defs>
		<rect id="SVGID_1_" width="52" height="44"/>
	</defs>
	<clipPath id="SVGID_2_">
		<use xlink:href="#SVGID_1_"  style="overflow:visible;"/>
	</clipPath>
	<path class="st0" d="M11,39L11,39c0,2.2,1.8,4,4,4h10.3c1.4,0,2.7-1.1,2.7-2.5c0-0.5-0.2-1-0.5-1.5l0,0c0.8,0.1,1.5-0.2,2-0.9
		c0.8-1.2,0.6-2.5-0.1-3.3c1-0.4,1.6-1.3,1.6-2.3c0-0.9-0.5-1.7-1.2-2.1c0.2-0.5,0.2-1,0.1-1.6c-0.3-1.1-1.4-1.8-2.6-1.8H22
		c-0.6,0-1-0.4-1-1v-6c0-1.7-1.3-3-3-3h-1v4c0,3.3-2.7,6-6,6"/>
	<path class="st0" d="M33,27h4v8l8-8h3c1.7,0,3-1.3,3-3V4c0-1.7-1.3-3-3-3H10C8.3,1,7,2.3,7,4v19"/>
	<path class="st0" d="M5,43h4c1.1,0,2-0.9,2-2V27H1"/>
	<polygon class="st1" points="42,17.3 38.9,19 39.5,15.4 37,12.8 40.5,12.3 42,9 43.5,12.3 47,12.8 44.5,15.4 45.1,19 	"/>
	<polygon class="st1" points="29,17.3 25.9,19 26.5,15.4 24,12.8 27.5,12.3 29,9 30.5,12.3 34,12.8 31.5,15.4 32.1,19 	"/>
	<polyline class="st0" points="12.9,19 13.5,15.4 11,12.8 14.5,12.3 16,9 17.5,12.3 21,12.8 	"/>
</g>
</svg>
