<?xml version="1.0" encoding="utf-8"?>
<!-- Generator: Adobe Illustrator 19.0.0, SVG Export Plug-In . SVG Version: 6.00 Build 0)  -->
<svg version="1.1" id="Capa_1" xmlns="http://www.w3.org/2000/svg" xmlns:xlink="http://www.w3.org/1999/xlink" x="0px" y="0px"
	 viewBox="0 0 52 44" style="enable-background:new 0 0 52 44;" xml:space="preserve">
<style type="text/css">
	.st0{clip-path:url(#SVGID_2_);fill:none;stroke:#37464C;stroke-width:2;stroke-linecap:round;stroke-linejoin:round;}
	.st1{clip-path:url(#SVGID_2_);fill:none;stroke:#37464C;stroke-width:2;stroke-linejoin:round;}
</style>
<g>
	<defs>
		<rect id="SVGID_1_" width="52" height="44"/>
	</defs>
	<clipPath id="SVGID_2_">
		<use xlink:href="#SVGID_1_"  style="overflow:visible;"/>
	</clipPath>
	<line class="st0" x1="20" y1="43" x2="21" y2="37"/>
	<line class="st0" x1="35" y1="43" x2="17" y2="43"/>
	<line class="st0" x1="31" y1="37" x2="32" y2="43"/>
	<path class="st0" d="M3,1C1.9,1,1,1.9,1,3v32c0,1.1,0.9,2,2,2h46c1.1,0,2-0.9,2-2V3c0-1.1-0.9-2-2-2H3z"/>
	<line class="st1" x1="1" y1="31" x2="51" y2="31"/>
	<circle class="st0" cx="20" cy="26" r="1"/>
	<circle class="st0" cx="32" cy="26" r="1"/>
	<path class="st0" d="M19,23h14c1.1,0,2-0.9,2-2s-0.9-2-2-2H18L15,9h17"/>
	<polyline class="st0" points="39,5 36.5,5 33,19 	"/>
</g>
</svg>
