<?xml version="1.0" encoding="utf-8"?>
<!-- Generator: Adobe Illustrator 19.0.0, SVG Export Plug-In . SVG Version: 6.00 Build 0)  -->
<svg version="1.1" id="Capa_1" xmlns="http://www.w3.org/2000/svg" xmlns:xlink="http://www.w3.org/1999/xlink" x="0px" y="0px"
	 viewBox="0 0 52 48" style="enable-background:new 0 0 52 48;" xml:space="preserve">
<style type="text/css">
	.st0{clip-path:url(#SVGID_2_);fill:none;stroke:#3cb292;stroke-width:2;stroke-linejoin:round;}
	.st1{clip-path:url(#SVGID_2_);fill:none;stroke:#3cb292;stroke-width:2;stroke-linecap:round;stroke-linejoin:round;}
</style>
<g>
	<defs>
		<rect id="SVGID_1_" width="52" height="48"/>
	</defs>
	<clipPath id="SVGID_2_">
		<use xlink:href="#SVGID_1_"  style="overflow:visible;"/>
	</clipPath>
	<path class="st0" d="M51,15H1L8.1,2.5C8.7,1.6,9.7,1,10.7,1h30.5c1.1,0,2.1,0.6,2.6,1.5L51,15z"/>
	<line class="st0" x1="35" y1="1" x2="39" y2="15"/>
	<line class="st0" x1="13" y1="15" x2="17" y2="1"/>
	<line class="st0" x1="26" y1="1" x2="26" y2="15"/>
	<path class="st0" d="M13,15c0,3.3-2.7,6-6,6s-6-2.7-6-6"/>
	<path class="st0" d="M26,15c0,3.3-2.9,6-6.5,6S13,18.3,13,15"/>
	<path class="st0" d="M39,15c0,3.3-2.9,6-6.5,6c-3.6,0-6.5-2.7-6.5-6"/>
	<path class="st0" d="M51,15c0,3.3-2.7,6-6,6s-6-2.7-6-6"/>
	<path class="st0" d="M5,20.7V44c0,1.7,1.3,3,3,3h36c1.7,0,3-1.3,3-3V20.7"/>
	<line class="st1" x1="11" y1="29" x2="13" y2="27"/>
	<line class="st1" x1="11" y1="35" x2="19" y2="27"/>
	<line class="st1" x1="35" y1="33" x2="33" y2="33"/>
	<line class="st1" x1="33" y1="21" x2="33" y2="47"/>
	<line class="st0" x1="5" y1="41" x2="33" y2="41"/>
</g>
</svg>
