<?xml version="1.0" encoding="utf-8"?>
<!-- Generator: Adobe Illustrator 19.0.0, SVG Export Plug-In . SVG Version: 6.00 Build 0)  -->
<svg version="1.1" id="Capa_1" xmlns="http://www.w3.org/2000/svg" xmlns:xlink="http://www.w3.org/1999/xlink" x="0px" y="0px"
	 viewBox="0 0 51.5 52.3" style="enable-background:new 0 0 51.5 52.3;" xml:space="preserve">
<style type="text/css">
	.st0{fill:none;stroke:#262626;stroke-width:2;stroke-linecap:round;stroke-linejoin:round;stroke-miterlimit:10;}
</style>
<g>
	<g>
		<path class="st0" d="M41.8,26.5c0,2.9-0.8,5.6-2.2,8l6.9,4c2-3.5,3.2-7.6,3.2-12c0-13.3-10.7-24-24-24v8
			C34.6,10.5,41.8,17.7,41.8,26.5z"/>
		<path class="st0" d="M9.7,26.5c0-8.8,7.2-16,16-16v-8c-13.3,0-24,10.7-24,24c0,4.4,1.2,8.5,3.2,12l6.9-4
			C10.5,32.1,9.7,29.4,9.7,26.5z"/>
		<path class="st0" d="M39.6,34.5c-2.8,4.8-7.9,8-13.8,8c-5.9,0-11.1-3.2-13.8-8l-6.9,4c4.2,7.2,11.9,12,20.8,12s16.6-4.8,20.8-12
			L39.6,34.5z"/>
	</g>
	<g>
		<rect x="23.2" y="23.5" class="st0" width="5" height="8"/>
		<rect x="18.2" y="26.5" class="st0" width="5" height="5"/>
		<rect x="28.2" y="21.5" class="st0" width="5" height="10"/>
	</g>
</g>
</svg>
