<?xml version="1.0" encoding="utf-8"?>
<!-- Generator: Adobe Illustrator 19.0.0, SVG Export Plug-In . SVG Version: 6.00 Build 0)  -->
<svg version="1.1" id="Capa_1" xmlns="http://www.w3.org/2000/svg" xmlns:xlink="http://www.w3.org/1999/xlink" x="0px" y="0px"
	 viewBox="0 0 43 50" style="enable-background:new 0 0 43 50;" xml:space="preserve">
<style type="text/css">
	
		.st0{clip-path:url(#SVGID_2_);fill:none;stroke:#262626;stroke-width:2;stroke-linecap:round;stroke-linejoin:round;stroke-miterlimit:10;}
</style>
<g>
	<defs>
		<rect id="SVGID_1_" y="0" width="43" height="50"/>
	</defs>
	<clipPath id="SVGID_2_">
		<use xlink:href="#SVGID_1_"  style="overflow:visible;"/>
	</clipPath>
	<path class="st0" d="M27.3,26c0-3.5,4.7-4.2,4.7-10c0-4.4-3.6-8-8-8c-4.4,0-8,3.6-8,8c0,5.8,4.7,6.5,4.7,10H27.3z"/>
	<path class="st0" d="M20.7,28.7V26h6.7v2.7c0,1.8-1.5,3.3-3.3,3.3C22.2,32,20.7,30.5,20.7,28.7z"/>
	<rect x="24" y="19.7" class="st0" width="0.1" height="6.3"/>
	<polygon class="st0" points="24,19.7 24,19.7 22,18.7 20.9,19.7 20.9,19.6 21.9,18.6 24,19.6 26.1,18.6 26.1,18.6 27.2,19.6 
		27.1,19.7 26.1,18.7 	"/>
	<path class="st0" d="M6,31v6.3c0,2.2,1.8,4,4,4h4.1c1.1,0,2,0.9,2,2V49h19.8V32.5C39.6,29.2,42,24.4,42,19c0-9.9-8.1-18-18-18
		C14.1,1,6,9.1,6,19l-4.7,7.9c-0.7,1.1-0.1,2.5,1.1,2.9L6,31z"/>
</g>
</svg>
