<?xml version="1.0" encoding="utf-8"?>
<!-- Generator: Adobe Illustrator 19.0.0, SVG Export Plug-In . SVG Version: 6.00 Build 0)  -->
<svg version="1.1" id="Capa_1" xmlns="http://www.w3.org/2000/svg" xmlns:xlink="http://www.w3.org/1999/xlink" x="0px" y="0px"
	 viewBox="0 0 44.6 50" style="enable-background:new 0 0 44.6 50;" xml:space="preserve">
<style type="text/css">
	
		.st0{clip-path:url(#SVGID_2_);fill:none;stroke:#3cb292;stroke-width:2;stroke-linecap:round;stroke-linejoin:round;stroke-miterlimit:10;}
	
		.st1{clip-path:url(#SVGID_4_);fill:none;stroke:#3cb292;stroke-width:2;stroke-linecap:round;stroke-linejoin:round;stroke-miterlimit:10;}
</style>
<g>
	<defs>
		<path id="SVGID_1_" d="M5,1C2.8,1,1,2.8,1,5v3v32v5c0,2.2,1.8,4,4,4h22c2.2,0,4-1.8,4-4v-5v-8.2h-2.6l-3.5,2.8
			c-0.5,0.5-2.2,0.6-2.2-0.6v-2.2c-2.4,0-4.3-1.9-4.3-4.3V17.3c0-2.4,1.9-4.3,4.3-4.3H31V8V5c0-2.2-1.8-4-4-4H5z"/>
	</defs>
	<clipPath id="SVGID_2_">
		<use xlink:href="#SVGID_1_"  style="overflow:visible;"/>
	</clipPath>
	<path class="st0" d="M1,45c0,2.2,1.8,4,4,4h22c2.2,0,4-1.8,4-4v-5H1V45z"/>
	<path class="st0" d="M27,1H5C2.8,1,1,2.8,1,5v3h30V5C31,2.8,29.2,1,27,1z"/>
	<rect x="1" y="8" class="st0" width="30" height="32"/>
	<circle class="st0" cx="16" cy="44.5" r="0.8"/>
</g>
<g>
	<defs>
		<rect id="SVGID_3_" width="44.6" height="50"/>
	</defs>
	<clipPath id="SVGID_4_">
		<use xlink:href="#SVGID_3_"  style="overflow:visible;"/>
	</clipPath>
	<path class="st1" d="M24.9,34.6c-0.5,0.5-2.2,0.6-2.2-0.6v-2.2c-2.4,0-4.3-1.9-4.3-4.3V17.3c0-2.4,1.9-4.3,4.3-4.3H31V8V5
		c0-2.2-1.8-4-4-4H5C2.8,1,1,2.8,1,5v3v32v5c0,2.2,1.8,4,4,4h22c2.2,0,4-1.8,4-4v-5v-8.2h-2.6L24.9,34.6z"/>
	<path class="st1" d="M28.4,31.8l-3.5,2.8c-0.5,0.5-2.2,0.6-2.2-0.6v-2.2c-2.4,0-4.3-1.9-4.3-4.3V17.3c0-2.4,1.9-4.3,4.3-4.3h16.6
		c2.4,0,4.3,1.9,4.3,4.3v10.2c0,2.4-1.9,4.3-4.3,4.3H28.4z"/>
	<path class="st1" d="M30,25.5C30,25.5,29.9,25.5,30,25.5l-3-5.9l-2.9,5.8c0,0-0.1,0.1-0.1,0c0,0-0.1-0.1,0-0.1l3-6
		c0-0.1,0.1-0.1,0.2,0l3,6C30.1,25.4,30.1,25.5,30,25.5C30,25.5,30,25.5,30,25.5z"/>
	<path class="st1" d="M33,25.5c-0.1,0-0.1,0-0.1-0.1v-6c0-0.1,0-0.1,0.1-0.1h2c1.7,0,3.1,1.4,3.1,3.1c0,1.7-1.4,3.1-3.1,3.1H33z"/>
	<path class="st1" d="M29,24.5h-4c-0.1,0-0.1,0-0.1-0.1c0-0.1,0-0.1,0.1-0.1h4C29.1,24.3,29.1,24.3,29,24.5
		C29.1,24.5,29.1,24.5,29,24.5z"/>
</g>
</svg>
