<?xml version="1.0" encoding="utf-8"?>
<!-- Generator: Adobe Illustrator 19.0.0, SVG Export Plug-In . SVG Version: 6.00 Build 0)  -->
<svg version="1.1" id="Capa_1" xmlns="http://www.w3.org/2000/svg" xmlns:xlink="http://www.w3.org/1999/xlink" x="0px" y="0px"
	 viewBox="0 0 50 46" style="enable-background:new 0 0 50 46;" xml:space="preserve">
<style type="text/css">
	
		.st0{clip-path:url(#SVGID_2_);fill:none;stroke:#262626;stroke-width:2;stroke-linecap:round;stroke-linejoin:round;stroke-miterlimit:10;}
</style>
<g>
	<g>
		<defs>
			<rect id="SVGID_1_" width="50" height="46"/>
		</defs>
		<clipPath id="SVGID_2_">
			<use xlink:href="#SVGID_1_"  style="overflow:visible;"/>
		</clipPath>
		<path class="st0" d="M41,1H9C4.6,1,1,4.6,1,9v2h48V9C49,4.6,45.4,1,41,1z"/>
		<path class="st0" d="M1,37c0,4.4,3.6,8,8,8h32c4.4,0,8-3.6,8-8V11H1V37z"/>
		<path class="st0" d="M18,6.5c-0.3,0-0.5-0.2-0.5-0.5c0-0.3,0.2-0.5,0.5-0.5s0.5,0.2,0.5,0.5C18.5,6.3,18.3,6.5,18,6.5z M13.5,6.5
			C13.2,6.5,13,6.3,13,6c0-0.3,0.2-0.5,0.5-0.5C13.8,5.5,14,5.7,14,6C14,6.3,13.8,6.5,13.5,6.5z M9,6.5C8.7,6.5,8.5,6.3,8.5,6
			c0-0.3,0.2-0.5,0.5-0.5c0.3,0,0.5,0.2,0.5,0.5C9.5,6.3,9.3,6.5,9,6.5z"/>
		<polygon class="st0" points="19,31.5 13.9,28 19,24.5 19,24.5 14.1,28 19,31.5 		"/>
		<polygon class="st0" points="31,31.5 31,31.5 35.9,28 31,24.5 31,24.5 36.1,28 		"/>
		
			<rect x="24.9" y="21.7" transform="matrix(0.9516 0.3073 -0.3073 0.9516 9.8135 -6.3274)" class="st0" width="0.1" height="12.6"/>
	</g>
</g>
</svg>
