<?xml version="1.0" encoding="utf-8"?>
<!-- Generator: Adobe Illustrator 19.0.0, SVG Export Plug-In . SVG Version: 6.00 Build 0)  -->
<svg version="1.1" id="Layer_1" xmlns="http://www.w3.org/2000/svg" xmlns:xlink="http://www.w3.org/1999/xlink" x="0px" y="0px"
	 viewBox="0 0 91.2 29.1" style="enable-background:new 0 0 91.2 29.1;" xml:space="preserve">
<style type="text/css">
	.st0{fill:#3CB292;}
	.st1{fill:#FFFFFF;}
</style>
<g>
	<g>
		<path d="M58.2,28v-6.1h0.5v5.7h3.6V28H58.2z"/>
		<path d="M68.7,28l-0.8-1.7h-3.6L63.5,28h-0.5l2.9-6.2h0.4l2.9,6.2H68.7z M66.1,22.3l-1.6,3.5h3.2L66.1,22.3z"/>
		<path d="M71.9,22.3V28h-0.5v-5.7h-2.1v-0.4H74v0.4H71.9z"/>
		<path d="M75.5,28v-6.1h0.5V28H75.5z"/>
		<path d="M82.5,28l-4.3-5.4V28h-0.4v-6.1h0.4l4.2,5.3v-5.3h0.4V28H82.5z"/>
		<path d="M89.8,28L89,26.3h-3.6L84.7,28h-0.5l2.9-6.2h0.4l2.9,6.2H89.8z M87.2,22.3l-1.6,3.5h3.2L87.2,22.3z"/>
	</g>
	<g>
		<path d="M38,5.9L38,5.9l-2.2,0.3c-0.2,0.1-0.3,0.2-0.3,0.5v2.1l0,1.1c-0.1,0-0.8-0.3-2-0.3c-2.9,0-3.5,1.9-3.5,4.8
			c0,3.6,1.2,4.6,4.5,4.6c1,0,2.1-0.1,2.9-0.4c0.9-0.3,1-0.9,1-1.3V6.2C38.3,6,38.2,5.9,38,5.9z M35.4,16.8c0,0-0.5,0.1-1,0.1
			c-1.2,0-1.5-0.3-1.5-2.8c0-2.4,0.3-2.6,1.4-2.6c0.5,0,1.1,0.1,1.1,0.1V16.8z"/>
		<path d="M42.8,10h-2.3c-0.2,0-0.3,0.1-0.3,0.3v8.1c0,0.2,0.1,0.3,0.3,0.3h2.3c0.1,0,0.3-0.1,0.3-0.3v-8.1C43.1,10.1,43,10,42.8,10
			z"/>
		<path d="M70.4,9.5c-3.8,0-4.3,2.1-4.3,4.7c0,2.6,0.5,4.7,4.3,4.7c3.8,0,4.3-2,4.3-4.7C74.7,11.6,74.2,9.5,70.4,9.5z M70.4,16.9
			c-1.3,0-1.3-0.8-1.3-2.7c0-2,0.1-2.7,1.3-2.7c1.3,0,1.3,0.8,1.3,2.7C71.8,16.1,71.7,16.9,70.4,16.9z"/>
		<path d="M80.1,16.7L80.1,16.7c-0.2,0-0.2,0-0.5,0c-0.3,0-0.6-0.2-0.6-0.8V6.2c0-0.2-0.1-0.3-0.3-0.3h-0.1l-2.2,0.3
			c-0.2,0-0.3,0.2-0.3,0.4v9.6c0,1.5,0.8,2.6,2.7,2.6c1,0,1.7-0.2,1.8-0.3c0,0,0.2-0.1,0.2-0.3v-0.1l-0.5-1.3
			C80.2,16.8,80.2,16.7,80.1,16.7z"/>
		<path d="M63.7,10c-0.6-0.3-1.4-0.5-2.5-0.5c-1.3,0-2.9,0.4-3.2,0.5c-0.1,0.1-0.2,0.1-0.2,0.3l-0.1,1.5c0,0.1,0.1,0.2,0.2,0.2
			c0,0,0.1,0,0.1,0c0.4-0.1,1.6-0.5,2.6-0.5c0.5,0,0.9,0.1,1.1,0.2c0.3,0.2,0.3,0.4,0.3,0.8v0.4l-2.8,0.5c-1.1,0.2-2.5,0.5-2.5,2.6
			c0,2.6,2,2.9,4.1,2.9c1,0,1.7-0.1,2.4-0.2c1.1-0.3,1.6-0.5,1.6-1.8v-4.6C64.7,11.3,64.5,10.5,63.7,10z M61.9,16.9
			c-0.1,0-0.6,0.2-1.2,0.2c-0.6,0-1.4-0.1-1.4-1.2c0-1,0.5-1.1,1.1-1.2l1.5-0.2V16.9z"/>
		<path d="M55.9,7.1c-0.6-0.7-1.6-1-3-1h-5.5c-0.2,0-0.3,0.1-0.3,0.3v12c0,0.2,0.1,0.3,0.3,0.3h2.5c0.1,0,0.3-0.1,0.3-0.3V14l2.3,0
			h0.1c1.4,0,2.6-0.3,3.3-1c0.7-0.7,0.9-1.7,0.9-3C56.7,8.7,56.5,7.7,55.9,7.1z M53.2,11.5c-0.3,0.4-0.9,0.4-1.8,0.5l-1.2,0V8.3h1
			c0.9,0,1.5,0,1.9,0.4c0.3,0.3,0.4,0.7,0.4,1.4C53.6,10.7,53.5,11.2,53.2,11.5z"/>
		<path d="M88.2,10c-0.6-0.3-1.4-0.5-2.5-0.5c-1.8,0-3.4,0.5-3.7,0.6c-0.1,0.1-0.2,0.1-0.2,0.3c0,0,0,0.1,0,0.1l0.3,1.3
			c0,0.1,0.1,0.2,0.2,0.2c0,0,0.1,0,0.1,0c0.4-0.1,1.7-0.5,2.7-0.5c0.5,0,0.9,0.1,1.1,0.2c0.3,0.2,0.3,0.4,0.3,0.8v0.4l-2.8,0.5
			c-1.1,0.2-2.5,0.5-2.5,2.6c0,2.6,2,2.9,4.1,2.9c1,0,1.7-0.1,2.4-0.2c1.1-0.3,1.6-0.5,1.6-1.8v-4.6C89.3,11.3,89,10.5,88.2,10z
			 M86.5,16.9c-0.1,0-0.6,0.2-1.2,0.2c-0.6,0-1.4-0.1-1.4-1.2c0-1,0.5-1.1,1.1-1.2l1.5-0.2V16.9z"/>
		<path d="M42.6,5.9h-1.8c-0.4,0-0.5,0.1-0.5,0.5v1.8c0,0.4,0.2,0.5,0.5,0.5h1.8c0.4,0,0.5-0.1,0.5-0.5V6.4
			C43.1,6,42.9,5.9,42.6,5.9z"/>
	</g>
	<g>
		<path class="st0" d="M19.7,1H6.9C3.6,1,1,3.6,1,6.9v12.8c0,3.3,2.6,5.9,5.9,5.9h12.8c3.3,0,5.9-2.6,5.9-5.9V6.9
			C25.6,3.6,23,1,19.7,1z"/>
	</g>
	<g>
		<path class="st1" d="M4.5,13.4H3.8c-0.2,0-0.3,0.1-0.3,0.3v0.6c0,0.2,0.1,0.3,0.3,0.3l0.6,0c0.2,0,0.3-0.1,0.3-0.3v-0.6
			C4.8,13.6,4.6,13.4,4.5,13.4z"/>
		<path class="st1" d="M4.5,15H3.8c-0.2,0-0.3,0.1-0.3,0.3v0.6c0,0.2,0.1,0.3,0.3,0.3h0.6c0.2,0,0.3-0.1,0.3-0.3v-0.6
			C4.8,15.1,4.6,15,4.5,15z"/>
		<path class="st1" d="M4.5,16.5l-0.6,0c-0.2,0-0.3,0.1-0.3,0.3v0.6c0,0.2,0.1,0.3,0.3,0.3h0.6c0.2,0,0.3-0.1,0.3-0.3v-0.6
			C4.8,16.6,4.6,16.5,4.5,16.5z"/>
		<path class="st1" d="M4.5,18H3.8c-0.2,0-0.3,0.1-0.3,0.3l0,0.6c0,0.2,0.1,0.3,0.3,0.3h0.6c0.2,0,0.3-0.1,0.3-0.3l0-0.6
			C4.8,18.1,4.6,18,4.5,18z"/>
		<path class="st1" d="M6,11.9l-0.6,0c-0.2,0-0.3,0.1-0.3,0.3v0.6c0,0.2,0.1,0.3,0.3,0.3l0.6,0c0.2,0,0.3-0.1,0.3-0.3v-0.6
			C6.3,12.1,6.2,11.9,6,11.9z"/>
		<path class="st1" d="M6,13.4H5.4c-0.2,0-0.3,0.1-0.3,0.3v0.6c0,0.2,0.1,0.3,0.3,0.3H6c0.2,0,0.3-0.1,0.3-0.3v-0.6
			C6.3,13.6,6.2,13.4,6,13.4z"/>
		<path class="st1" d="M6,15H5.4c-0.2,0-0.3,0.1-0.3,0.3v0.6c0,0.2,0.1,0.3,0.3,0.3H6c0.2,0,0.3-0.1,0.3-0.3l0-0.6
			C6.3,15.1,6.2,15,6,15z"/>
		<path class="st1" d="M6,16.5l-0.6,0c-0.2,0-0.3,0.1-0.3,0.3v0.6c0,0.2,0.1,0.3,0.3,0.3H6c0.2,0,0.3-0.1,0.3-0.3v-0.6
			C6.3,16.6,6.2,16.5,6,16.5z"/>
		<path class="st1" d="M6,18H5.4c-0.2,0-0.3,0.1-0.3,0.3l0,0.6c0,0.2,0.1,0.3,0.3,0.3H6c0.2,0,0.3-0.1,0.3-0.3v-0.6
			C6.3,18.1,6.2,18,6,18z"/>
		<path class="st1" d="M6,19.5H5.4c-0.2,0-0.3,0.1-0.3,0.3l0,0.6c0,0.2,0.1,0.3,0.3,0.3H6c0.2,0,0.3-0.1,0.3-0.3v-0.6
			C6.3,19.7,6.2,19.5,6,19.5z"/>
		<path class="st1" d="M7.5,11.9H6.9c-0.2,0-0.3,0.1-0.3,0.3v0.6c0,0.2,0.1,0.3,0.3,0.3h0.6c0.2,0,0.3-0.1,0.3-0.3l0-0.6
			C7.8,12.1,7.7,11.9,7.5,11.9z"/>
		<path class="st1" d="M7.5,13.4l-0.6,0c-0.2,0-0.3,0.1-0.3,0.3v0.6c0,0.2,0.1,0.3,0.3,0.3h0.6c0.2,0,0.3-0.1,0.3-0.3v-0.6
			C7.8,13.6,7.7,13.4,7.5,13.4z"/>
		<path class="st1" d="M7.5,18H6.9c-0.2,0-0.3,0.1-0.3,0.3l0,0.6c0,0.2,0.1,0.3,0.3,0.3l0.6,0c0.2,0,0.3-0.1,0.3-0.3l0-0.6
			C7.8,18.1,7.7,18,7.5,18z"/>
		<path class="st1" d="M7.5,19.5l-0.6,0c-0.2,0-0.3,0.1-0.3,0.3l0,0.6c0,0.2,0.1,0.3,0.3,0.3h0.6c0.2,0,0.3-0.1,0.3-0.3v-0.6
			C7.8,19.7,7.7,19.5,7.5,19.5z"/>
		<path class="st1" d="M9.1,11.9l-0.6,0c-0.2,0-0.3,0.1-0.3,0.3l0,0.6c0,0.2,0.1,0.3,0.3,0.3l0.6,0c0.2,0,0.3-0.1,0.3-0.3v-0.6
			C9.3,12.1,9.2,11.9,9.1,11.9z"/>
		<path class="st1" d="M9.1,13.4H8.4c-0.2,0-0.3,0.1-0.3,0.3v0.6c0,0.2,0.1,0.3,0.3,0.3h0.6c0.2,0,0.3-0.1,0.3-0.3v-0.6
			C9.3,13.6,9.2,13.4,9.1,13.4z"/>
		<path class="st1" d="M9.1,18H8.4c-0.2,0-0.3,0.1-0.3,0.3l0,0.6c0,0.2,0.1,0.3,0.3,0.3l0.6,0c0.2,0,0.3-0.1,0.3-0.3l0-0.6
			C9.3,18.1,9.2,18,9.1,18z"/>
		<path class="st1" d="M9.1,19.5l-0.6,0c-0.2,0-0.3,0.1-0.3,0.3l0,0.6c0,0.2,0.1,0.3,0.3,0.3l0.6,0c0.2,0,0.3-0.1,0.3-0.3l0-0.6
			C9.3,19.7,9.2,19.5,9.1,19.5z"/>
		<path class="st1" d="M10.6,7.4l-0.6,0c-0.2,0-0.3,0.1-0.3,0.3l0,0.6c0,0.2,0.1,0.3,0.3,0.3l0.6,0c0.2,0,0.3-0.1,0.3-0.3V7.7
			C10.9,7.5,10.7,7.4,10.6,7.4z"/>
		<path class="st1" d="M10.6,8.9H9.9C9.8,8.9,9.6,9,9.6,9.2l0,0.6c0,0.2,0.1,0.3,0.3,0.3l0.6,0c0.2,0,0.3-0.1,0.3-0.3l0-0.6
			C10.9,9,10.7,8.9,10.6,8.9z"/>
		<path class="st1" d="M10.6,10.4l-0.6,0c-0.2,0-0.3,0.1-0.3,0.3v0.6c0,0.2,0.1,0.3,0.3,0.3h0.6c0.2,0,0.3-0.1,0.3-0.3l0-0.6
			C10.9,10.5,10.7,10.4,10.6,10.4z"/>
		<path class="st1" d="M10.6,11.9l-0.6,0c-0.2,0-0.3,0.1-0.3,0.3l0,0.6c0,0.2,0.1,0.3,0.3,0.3l0.6,0c0.2,0,0.3-0.1,0.3-0.3v-0.6
			C10.9,12.1,10.7,11.9,10.6,11.9z"/>
		<path class="st1" d="M10.6,13.4H9.9c-0.2,0-0.3,0.1-0.3,0.3v0.6c0,0.2,0.1,0.3,0.3,0.3l0.6,0c0.2,0,0.3-0.1,0.3-0.3l0-0.6
			C10.9,13.6,10.7,13.4,10.6,13.4z"/>
		<path class="st1" d="M10.6,15l-0.6,0c-0.2,0-0.3,0.1-0.3,0.3l0,0.6c0,0.2,0.1,0.3,0.3,0.3h0.6c0.2,0,0.3-0.1,0.3-0.3v-0.6
			C10.9,15.1,10.7,15,10.6,15z"/>
		<path class="st1" d="M10.6,16.5l-0.6,0c-0.2,0-0.3,0.1-0.3,0.3l0,0.6c0,0.2,0.1,0.3,0.3,0.3l0.6,0c0.2,0,0.3-0.1,0.3-0.3v-0.6
			C10.9,16.6,10.7,16.5,10.6,16.5z"/>
		<path class="st1" d="M10.6,18H9.9c-0.2,0-0.3,0.1-0.3,0.3l0,0.6c0,0.2,0.1,0.3,0.3,0.3l0.6,0c0.2,0,0.3-0.1,0.3-0.3v-0.6
			C10.9,18.1,10.7,18,10.6,18z"/>
		<path class="st1" d="M10.6,19.5l-0.6,0c-0.2,0-0.3,0.1-0.3,0.3v0.6c0,0.2,0.1,0.3,0.3,0.3l0.6,0c0.2,0,0.3-0.1,0.3-0.3l0-0.6
			C10.9,19.7,10.7,19.5,10.6,19.5z"/>
		<path class="st1" d="M12.1,7.4l-0.6,0c-0.2,0-0.3,0.1-0.3,0.3l0,0.6c0,0.2,0.1,0.3,0.3,0.3l0.6,0c0.2,0,0.3-0.1,0.3-0.3l0-0.6
			C12.4,7.5,12.3,7.4,12.1,7.4z"/>
		<path class="st1" d="M10.6,5.8l-0.6,0C9.8,5.8,9.6,6,9.6,6.1l0,0.6c0,0.2,0.1,0.3,0.3,0.3h0.6c0.2,0,0.3-0.1,0.3-0.3V6.1
			C10.9,6,10.7,5.8,10.6,5.8z"/>
		<path class="st1" d="M12.1,5.8h-0.6c-0.2,0-0.3,0.1-0.3,0.3v0.6c0,0.2,0.1,0.3,0.3,0.3h0.6c0.2,0,0.3-0.1,0.3-0.3l0-0.6
			C12.4,6,12.3,5.8,12.1,5.8z"/>
		<path class="st1" d="M12.1,8.9h-0.6c-0.2,0-0.3,0.1-0.3,0.3l0,0.6c0,0.2,0.1,0.3,0.3,0.3h0.6c0.2,0,0.3-0.1,0.3-0.3l0-0.6
			C12.4,9,12.3,8.9,12.1,8.9z"/>
		<path class="st1" d="M12.1,10.4h-0.6c-0.2,0-0.3,0.1-0.3,0.3l0,0.6c0,0.2,0.1,0.3,0.3,0.3h0.6c0.2,0,0.3-0.1,0.3-0.3l0-0.6
			C12.4,10.5,12.3,10.4,12.1,10.4z"/>
		<path class="st1" d="M12.1,11.9h-0.6c-0.2,0-0.3,0.1-0.3,0.3v0.6c0,0.2,0.1,0.3,0.3,0.3h0.6c0.2,0,0.3-0.1,0.3-0.3v-0.6
			C12.4,12.1,12.3,11.9,12.1,11.9z"/>
		<path class="st1" d="M12.1,13.4h-0.6c-0.2,0-0.3,0.1-0.3,0.3v0.6c0,0.2,0.1,0.3,0.3,0.3h0.6c0.2,0,0.3-0.1,0.3-0.3v-0.6
			C12.4,13.6,12.3,13.4,12.1,13.4z"/>
		<path class="st1" d="M12.1,15h-0.6c-0.2,0-0.3,0.1-0.3,0.3l0,0.6c0,0.2,0.1,0.3,0.3,0.3h0.6c0.2,0,0.3-0.1,0.3-0.3v-0.6
			C12.4,15.1,12.3,15,12.1,15z"/>
		<path class="st1" d="M12.1,16.5h-0.6c-0.2,0-0.3,0.1-0.3,0.3l0,0.6c0,0.2,0.1,0.3,0.3,0.3h0.6c0.2,0,0.3-0.1,0.3-0.3v-0.6
			C12.4,16.6,12.3,16.5,12.1,16.5z"/>
		<path class="st1" d="M12.1,18h-0.6c-0.2,0-0.3,0.1-0.3,0.3V19c0,0.2,0.1,0.3,0.3,0.3h0.6c0.2,0,0.3-0.1,0.3-0.3l0-0.6
			C12.4,18.1,12.3,18,12.1,18z"/>
		<path class="st1" d="M12.1,19.5h-0.6c-0.2,0-0.3,0.1-0.3,0.3v0.6c0,0.2,0.1,0.3,0.3,0.3l0.6,0c0.2,0,0.3-0.1,0.3-0.3l0-0.6
			C12.4,19.7,12.3,19.5,12.1,19.5z"/>
		<path class="st1" d="M15.1,7.4h-0.6c-0.2,0-0.3,0.1-0.3,0.3l0,0.6c0,0.2,0.1,0.3,0.3,0.3h0.6c0.2,0,0.3-0.1,0.3-0.3V7.7
			C15.4,7.5,15.3,7.4,15.1,7.4z"/>
		<path class="st1" d="M15.1,8.9h-0.6c-0.2,0-0.3,0.1-0.3,0.3l0,0.6c0,0.2,0.1,0.3,0.3,0.3h0.6c0.2,0,0.3-0.1,0.3-0.3l0-0.6
			C15.4,9,15.3,8.9,15.1,8.9z"/>
		<path class="st1" d="M15.1,10.4h-0.6c-0.2,0-0.3,0.1-0.3,0.3l0,0.6c0,0.2,0.1,0.3,0.3,0.3h0.6c0.2,0,0.3-0.1,0.3-0.3l0-0.6
			C15.4,10.5,15.3,10.4,15.1,10.4z"/>
		<path class="st1" d="M15.1,11.9l-0.6,0c-0.2,0-0.3,0.1-0.3,0.3v0.6c0,0.2,0.1,0.3,0.3,0.3l0.6,0c0.2,0,0.3-0.1,0.3-0.3v-0.6
			C15.4,12.1,15.3,11.9,15.1,11.9z"/>
		<path class="st1" d="M15.1,13.4h-0.6c-0.2,0-0.3,0.1-0.3,0.3v0.6c0,0.2,0.1,0.3,0.3,0.3h0.6c0.2,0,0.3-0.1,0.3-0.3l0-0.6
			C15.4,13.6,15.3,13.4,15.1,13.4z"/>
		<path class="st1" d="M15.1,15h-0.6c-0.2,0-0.3,0.1-0.3,0.3v0.6c0,0.2,0.1,0.3,0.3,0.3h0.6c0.2,0,0.3-0.1,0.3-0.3v-0.6
			C15.4,15.1,15.3,15,15.1,15z"/>
		<path class="st1" d="M15.1,16.5h-0.6c-0.2,0-0.3,0.1-0.3,0.3v0.6c0,0.2,0.1,0.3,0.3,0.3h0.6c0.2,0,0.3-0.1,0.3-0.3v-0.6
			C15.4,16.6,15.3,16.5,15.1,16.5z"/>
		<path class="st1" d="M15.1,18h-0.6c-0.2,0-0.3,0.1-0.3,0.3l0,0.6c0,0.2,0.1,0.3,0.3,0.3h0.6c0.2,0,0.3-0.1,0.3-0.3v-0.6
			C15.4,18.1,15.3,18,15.1,18z"/>
		<path class="st1" d="M15.1,19.5h-0.6c-0.2,0-0.3,0.1-0.3,0.3l0,0.6c0,0.2,0.1,0.3,0.3,0.3h0.6c0.2,0,0.3-0.1,0.3-0.3l0-0.6
			C15.4,19.7,15.3,19.5,15.1,19.5z"/>
		<path class="st1" d="M16.7,7.4H16c-0.2,0-0.3,0.1-0.3,0.3l0,0.6c0,0.2,0.1,0.3,0.3,0.3h0.6c0.2,0,0.3-0.1,0.3-0.3l0-0.6
			C17,7.5,16.8,7.4,16.7,7.4z"/>
		<path class="st1" d="M16.7,8.9H16c-0.2,0-0.3,0.1-0.3,0.3l0,0.6c0,0.2,0.1,0.3,0.3,0.3h0.6c0.2,0,0.3-0.1,0.3-0.3l0-0.6
			C17,9,16.8,8.9,16.7,8.9z"/>
		<path class="st1" d="M16.7,10.4H16c-0.2,0-0.3,0.1-0.3,0.3v0.6c0,0.2,0.1,0.3,0.3,0.3h0.6c0.2,0,0.3-0.1,0.3-0.3v-0.6
			C17,10.5,16.8,10.4,16.7,10.4z"/>
		<path class="st1" d="M16.7,11.9H16c-0.2,0-0.3,0.1-0.3,0.3v0.6c0,0.2,0.1,0.3,0.3,0.3h0.6c0.2,0,0.3-0.1,0.3-0.3v-0.6
			C17,12.1,16.8,11.9,16.7,11.9z"/>
		<path class="st1" d="M16.7,13.4H16c-0.2,0-0.3,0.1-0.3,0.3v0.6c0,0.2,0.1,0.3,0.3,0.3h0.6c0.2,0,0.3-0.1,0.3-0.3v-0.6
			C17,13.6,16.8,13.4,16.7,13.4z"/>
		<path class="st1" d="M16.7,15H16c-0.2,0-0.3,0.1-0.3,0.3v0.6c0,0.2,0.1,0.3,0.3,0.3h0.6c0.2,0,0.3-0.1,0.3-0.3v-0.6
			C17,15.1,16.8,15,16.7,15z"/>
		<path class="st1" d="M16.7,16.5H16c-0.2,0-0.3,0.1-0.3,0.3v0.6c0,0.2,0.1,0.3,0.3,0.3h0.6c0.2,0,0.3-0.1,0.3-0.3v-0.6
			C17,16.6,16.8,16.5,16.7,16.5z"/>
		<path class="st1" d="M16.7,18H16c-0.2,0-0.3,0.1-0.3,0.3l0,0.6c0,0.2,0.1,0.3,0.3,0.3h0.6c0.2,0,0.3-0.1,0.3-0.3l0-0.6
			C17,18.1,16.8,18,16.7,18z"/>
		<path class="st1" d="M16.7,19.5H16c-0.2,0-0.3,0.1-0.3,0.3v0.6c0,0.2,0.1,0.3,0.3,0.3h0.6c0.2,0,0.3-0.1,0.3-0.3v-0.6
			C17,19.7,16.8,19.5,16.7,19.5z"/>
		<path class="st1" d="M18.2,7.4h-0.6c-0.2,0-0.3,0.1-0.3,0.3l0,0.6c0,0.2,0.1,0.3,0.3,0.3h0.6c0.2,0,0.3-0.1,0.3-0.3l0-0.6
			C18.5,7.5,18.4,7.4,18.2,7.4z"/>
		<path class="st1" d="M18.2,11.9h-0.6c-0.2,0-0.3,0.1-0.3,0.3l0,0.6c0,0.2,0.1,0.3,0.3,0.3h0.6c0.2,0,0.3-0.1,0.3-0.3v-0.6
			C18.5,12.1,18.4,11.9,18.2,11.9z"/>
		<path class="st1" d="M18.2,13.4h-0.6c-0.2,0-0.3,0.1-0.3,0.3v0.6c0,0.2,0.1,0.3,0.3,0.3h0.6c0.2,0,0.3-0.1,0.3-0.3v-0.6
			C18.5,13.6,18.4,13.4,18.2,13.4z"/>
		<path class="st1" d="M19.7,7.4h-0.6c-0.2,0-0.3,0.1-0.3,0.3l0,0.6c0,0.2,0.1,0.3,0.3,0.3h0.6c0.2,0,0.3-0.1,0.3-0.3V7.7
			C20,7.5,19.9,7.4,19.7,7.4z"/>
		<path class="st1" d="M19.7,11.9h-0.6c-0.2,0-0.3,0.1-0.3,0.3v0.6c0,0.2,0.1,0.3,0.3,0.3h0.6c0.2,0,0.3-0.1,0.3-0.3l0-0.6
			C20,12.1,19.9,11.9,19.7,11.9z"/>
		<path class="st1" d="M19.7,13.4l-0.6,0c-0.2,0-0.3,0.1-0.3,0.3v0.6c0,0.2,0.1,0.3,0.3,0.3h0.6c0.2,0,0.3-0.1,0.3-0.3l0-0.6
			C20,13.6,19.9,13.4,19.7,13.4z"/>
		<path class="st1" d="M21.2,7.4h-0.6c-0.2,0-0.3,0.1-0.3,0.3l0,0.6c0,0.2,0.1,0.3,0.3,0.3h0.6c0.2,0,0.3-0.1,0.3-0.3l0-0.6
			C21.5,7.5,21.4,7.4,21.2,7.4z"/>
		<path class="st1" d="M21.2,8.9h-0.6c-0.2,0-0.3,0.1-0.3,0.3l0,0.6c0,0.2,0.1,0.3,0.3,0.3h0.6c0.2,0,0.3-0.1,0.3-0.3l0-0.6
			C21.5,9,21.4,8.9,21.2,8.9z"/>
		<path class="st1" d="M21.2,10.4h-0.6c-0.2,0-0.3,0.1-0.3,0.3l0,0.6c0,0.2,0.1,0.3,0.3,0.3h0.6c0.2,0,0.3-0.1,0.3-0.3l0-0.6
			C21.5,10.5,21.4,10.4,21.2,10.4z"/>
		<path class="st1" d="M21.2,11.9h-0.6c-0.2,0-0.3,0.1-0.3,0.3v0.6c0,0.2,0.1,0.3,0.3,0.3h0.6c0.2,0,0.3-0.1,0.3-0.3v-0.6
			C21.5,12.1,21.4,11.9,21.2,11.9z"/>
		<path class="st1" d="M21.2,13.4l-0.6,0c-0.2,0-0.3,0.1-0.3,0.3v0.6c0,0.2,0.1,0.3,0.3,0.3h0.6c0.2,0,0.3-0.1,0.3-0.3v-0.6
			C21.5,13.6,21.4,13.4,21.2,13.4z"/>
		<path class="st1" d="M22.8,7.4h-0.6c-0.2,0-0.3,0.1-0.3,0.3v0.6c0,0.2,0.1,0.3,0.3,0.3h0.6c0.2,0,0.3-0.1,0.3-0.3V7.7
			C23.1,7.5,22.9,7.4,22.8,7.4z"/>
		<path class="st1" d="M15.1,5.8h-0.6c-0.2,0-0.3,0.1-0.3,0.3l0,0.6c0,0.2,0.1,0.3,0.3,0.3h0.6c0.2,0,0.3-0.1,0.3-0.3V6.1
			C15.4,6,15.3,5.8,15.1,5.8z"/>
		<path class="st1" d="M16.7,5.8H16c-0.2,0-0.3,0.1-0.3,0.3l0,0.6c0,0.2,0.1,0.3,0.3,0.3h0.6c0.2,0,0.3-0.1,0.3-0.3l0-0.6
			C17,6,16.8,5.8,16.7,5.8z"/>
		<path class="st1" d="M18.2,5.8h-0.6c-0.2,0-0.3,0.1-0.3,0.3l0,0.6c0,0.2,0.1,0.3,0.3,0.3h0.6c0.2,0,0.3-0.1,0.3-0.3l0-0.6
			C18.5,6,18.4,5.8,18.2,5.8z"/>
		<path class="st1" d="M19.7,5.8h-0.6c-0.2,0-0.3,0.1-0.3,0.3l0,0.6c0,0.2,0.1,0.3,0.3,0.3h0.6c0.2,0,0.3-0.1,0.3-0.3V6.1
			C20,6,19.9,5.8,19.7,5.8z"/>
		<path class="st1" d="M21.2,5.8h-0.6c-0.2,0-0.3,0.1-0.3,0.3l0,0.6c0,0.2,0.1,0.3,0.3,0.3h0.6c0.2,0,0.3-0.1,0.3-0.3l0-0.6
			C21.5,6,21.4,5.8,21.2,5.8z"/>
		<path class="st1" d="M22.8,8.9h-0.6c-0.2,0-0.3,0.1-0.3,0.3l0,0.6c0,0.2,0.1,0.3,0.3,0.3h0.6c0.2,0,0.3-0.1,0.3-0.3l0-0.6
			C23.1,9,22.9,8.9,22.8,8.9z"/>
		<path class="st1" d="M22.8,10.4h-0.6c-0.2,0-0.3,0.1-0.3,0.3l0,0.6c0,0.2,0.1,0.3,0.3,0.3h0.6c0.2,0,0.3-0.1,0.3-0.3l0-0.6
			C23.1,10.5,22.9,10.4,22.8,10.4z"/>
		<path class="st1" d="M22.8,11.9h-0.6c-0.2,0-0.3,0.1-0.3,0.3v0.6c0,0.2,0.1,0.3,0.3,0.3h0.6c0.2,0,0.3-0.1,0.3-0.3v-0.6
			C23.1,12.1,22.9,11.9,22.8,11.9z"/>
	</g>
</g>
</svg>
