<?xml version="1.0" encoding="utf-8"?>
<!-- Generator: Adobe Illustrator 19.0.0, SVG Export Plug-In . SVG Version: 6.00 Build 0)  -->
<svg version="1.1" id="Layer_1" xmlns="http://www.w3.org/2000/svg" xmlns:xlink="http://www.w3.org/1999/xlink" x="0px" y="0px"
	 viewBox="0 0 1400 2575" style="enable-background:new 0 0 1400 2575;" xml:space="preserve">
<style type="text/css">
	.st0{fill:#FFFFFF;}
	.st1{fill-rule:evenodd;clip-rule:evenodd;fill:#FFFFFF;}
</style>
<g id="sgNzJc.tif">
	<g>
		<path class="st0" d="M-2442.3,412.5c0-10.3,0-20.5,0-30.8c0.1-0.2,0.2-0.4,0.2-0.6c0.8-5.4,3.5-9.6,8.2-12.2
			c2.1-1.2,4.5-1.6,6.8-2.4c10.3,0,20.5,0,30.8,0c0.2,0.1,0.4,0.2,0.6,0.2c5.4,0.8,9.6,3.5,12.2,8.2c1.2,2.1,1.6,4.5,2.4,6.8
			c0,10.3,0,20.5,0,30.8c-0.1,0.2-0.2,0.4-0.2,0.6c-0.8,5.6-3.7,9.8-8.6,12.4c-2,1.1-4.3,1.5-6.5,2.2c-10.3,0-20.5,0-30.8,0
			c-0.2-0.1-0.4-0.2-0.6-0.2c-5.4-0.8-9.6-3.5-12.2-8.2C-2441,417.3-2441.5,414.8-2442.3,412.5z M-2436.8,397c0,4.8-0.1,9.6,0,14.4
			c0.1,5.8,5.1,10.8,10.8,10.9c9.6,0.1,19.2,0.1,28.7,0c5.7-0.1,10.8-5.1,10.8-10.9c0.1-9.5,0.1-19.1,0-28.6
			c-0.1-5.8-5.1-10.8-10.9-10.9c-9.5-0.1-19-0.1-28.5,0c-5.9,0.1-10.9,5.1-11,11C-2436.9,387.6-2436.8,392.3-2436.8,397z"/>
		<path class="st0" d="M-2411.5,381.4c8.8,0,15.7,7,15.7,15.8c0,8.8-7,15.7-15.8,15.7c-8.8,0-15.7-7-15.7-15.8
			C-2427.3,388.3-2420.3,381.4-2411.5,381.4z M-2411.6,407.5c5.7,0,10.4-4.8,10.4-10.4c0-5.7-4.8-10.4-10.4-10.4
			c-5.7,0-10.4,4.8-10.4,10.4C-2422,402.8-2417.2,407.6-2411.6,407.5z"/>
		<path class="st0" d="M-2391.2,380.7c0,2.2-1.7,4-3.9,4c-2.2,0-4-1.8-3.9-4c0-2.2,1.7-3.9,3.9-3.9
			C-2393,376.8-2391.2,378.5-2391.2,380.7z"/>
	</g>
</g>
<path class="st1" d="M-2347.6,397.8v30h14.3v-32.5v-8.4h-14.3V397.8z M-2286.7,399.5c-0.9-7.8-4.5-12.6-14.9-12.6
	c-6.1,0-10.3,2.3-12,5.5h-0.2v-5.5h-11.4v7.9v33h11.9v-20.3c0-5.3,1.1-10.5,7.6-10.5c6.6,0,7.1,6.1,7.1,10.9v19.9h12.3v-22.5
	C-2286.3,403.2-2286.4,401.3-2286.7,399.5L-2286.7,399.5z M-2340.5,366.5c-4,0-7.1,3.2-7.1,7.1s3.2,7.1,7.1,7.1s7.1-3.2,7.1-7.1
	S-2336.5,366.5-2340.5,366.5L-2340.5,366.5z"/>
<path class="st1" d="M-2485.7,384.8v-4.9c0-2.4,1.6-2.9,2.7-2.9c1.1,0,6.9,0,6.9,0v-10.5h-9.5c-10.5,0-12.9,7.8-12.9,12.8v5.5h-6.1
	v7.4v4.9h6.2c0,13.9,0,30.6,0,30.6h12.3c0,0,0-17,0-30.6h9.1l0.4-4.8l0.7-7.4H-2485.7z"/>
</svg>
